<mxfile host="app.diagrams.net" modified="2020-08-14T18:27:47.862Z" agent="5.0 (Windows NT 10.0; Win64; x64) AppleWebKit/537.36 (KHTML, like Gecko) Chrome/83.0.4103.116 Safari/537.36 OPR/69.0.3686.95" etag="oohBqPGpHAfGYHEBZO_B" version="13.6.2" type="github" pages="3">
  <diagram id="FG9BS8m6Aq1ZOrA0WvgN" name="Page-1">
    <mxGraphModel dx="473" dy="1358" grid="1" gridSize="10" guides="1" tooltips="1" connect="1" arrows="1" fold="1" page="1" pageScale="1" pageWidth="850" pageHeight="1100" math="0" shadow="0">
      <root>
        <mxCell id="0" />
        <mxCell id="1" parent="0" />
        <mxCell id="u197wY4B6SGhlcCvIEL5-1" value="" style="group" vertex="1" connectable="0" parent="1">
          <mxGeometry x="81" y="-1040" width="959" height="1400" as="geometry" />
        </mxCell>
        <mxCell id="Cww_4uUf4-sxZRk8ilHu-10" value="" style="group;strokeColor=#000000;container=0;" vertex="1" connectable="0" parent="u197wY4B6SGhlcCvIEL5-1">
          <mxGeometry y="18" width="880.5" height="932" as="geometry" />
        </mxCell>
        <mxCell id="Cww_4uUf4-sxZRk8ilHu-11" value="" style="group;fillColor=#E6E6E6;container=0;" vertex="1" connectable="0" parent="u197wY4B6SGhlcCvIEL5-1">
          <mxGeometry y="18" width="880.5" height="932" as="geometry" />
        </mxCell>
        <mxCell id="Cww_4uUf4-sxZRk8ilHu-12" value="" style="rounded=0;whiteSpace=wrap;html=1;strokeColor=#CCCCCC;" vertex="1" parent="u197wY4B6SGhlcCvIEL5-1">
          <mxGeometry x="0.5" width="958.5" height="1400" as="geometry" />
        </mxCell>
        <mxCell id="Cww_4uUf4-sxZRk8ilHu-13" value="" style="rounded=0;whiteSpace=wrap;html=1;fontFamily=Times New Roman;strokeColor=none;" vertex="1" parent="u197wY4B6SGhlcCvIEL5-1">
          <mxGeometry y="20" width="880" height="290" as="geometry" />
        </mxCell>
        <mxCell id="Cww_4uUf4-sxZRk8ilHu-14" value="" style="rhombus;whiteSpace=wrap;html=1;fontFamily=Helvetica;fontSize=12;fontColor=#000000;align=center;strokeColor=#000000;fillColor=#ffffff;" vertex="1" parent="u197wY4B6SGhlcCvIEL5-1">
          <mxGeometry x="30" y="33" width="40" height="40" as="geometry" />
        </mxCell>
        <mxCell id="Cww_4uUf4-sxZRk8ilHu-15" value="" style="group;fontStyle=1" vertex="1" connectable="0" parent="u197wY4B6SGhlcCvIEL5-1">
          <mxGeometry x="350" y="43" width="420" height="20" as="geometry" />
        </mxCell>
        <mxCell id="Cww_4uUf4-sxZRk8ilHu-16" value="&lt;b&gt;Home&lt;/b&gt;" style="text;html=1;strokeColor=none;fillColor=none;align=center;verticalAlign=middle;whiteSpace=wrap;rounded=0;" vertex="1" parent="Cww_4uUf4-sxZRk8ilHu-15">
          <mxGeometry width="40" height="20" as="geometry" />
        </mxCell>
        <mxCell id="Cww_4uUf4-sxZRk8ilHu-17" value="&lt;b&gt;About Us&lt;/b&gt;" style="text;html=1;strokeColor=none;fillColor=none;align=center;verticalAlign=middle;whiteSpace=wrap;rounded=0;" vertex="1" parent="Cww_4uUf4-sxZRk8ilHu-15">
          <mxGeometry x="50" width="60" height="20" as="geometry" />
        </mxCell>
        <mxCell id="Cww_4uUf4-sxZRk8ilHu-18" value="&lt;b&gt;Agency Information&lt;/b&gt;" style="text;html=1;strokeColor=none;fillColor=none;align=center;verticalAlign=middle;whiteSpace=wrap;rounded=0;" vertex="1" parent="Cww_4uUf4-sxZRk8ilHu-15">
          <mxGeometry x="190" width="120" height="20" as="geometry" />
        </mxCell>
        <mxCell id="Cww_4uUf4-sxZRk8ilHu-19" value="&lt;b&gt;Sign up / Sign In&lt;/b&gt;" style="text;html=1;strokeColor=none;fillColor=none;align=center;verticalAlign=middle;whiteSpace=wrap;rounded=0;" vertex="1" parent="Cww_4uUf4-sxZRk8ilHu-15">
          <mxGeometry x="310" width="110" height="20" as="geometry" />
        </mxCell>
        <mxCell id="Cww_4uUf4-sxZRk8ilHu-20" value="Fun Stuff" style="text;html=1;strokeColor=none;fillColor=none;align=center;verticalAlign=middle;whiteSpace=wrap;rounded=0;fontStyle=1" vertex="1" parent="Cww_4uUf4-sxZRk8ilHu-15">
          <mxGeometry x="120" width="60" height="20" as="geometry" />
        </mxCell>
        <mxCell id="Cww_4uUf4-sxZRk8ilHu-21" style="edgeStyle=orthogonalEdgeStyle;rounded=0;orthogonalLoop=1;jettySize=auto;html=1;exitX=0.5;exitY=1;exitDx=0;exitDy=0;" edge="1" parent="Cww_4uUf4-sxZRk8ilHu-15" source="Cww_4uUf4-sxZRk8ilHu-20" target="Cww_4uUf4-sxZRk8ilHu-20">
          <mxGeometry relative="1" as="geometry" />
        </mxCell>
        <mxCell id="Cww_4uUf4-sxZRk8ilHu-22" value="" style="rounded=0;whiteSpace=wrap;html=1;fontColor=#CCCCCC;strokeColor=#CCCCCC;" vertex="1" parent="u197wY4B6SGhlcCvIEL5-1">
          <mxGeometry x="904.5" y="243" width="47" height="40" as="geometry" />
        </mxCell>
        <mxCell id="Cww_4uUf4-sxZRk8ilHu-23" value="" style="shape=mxgraph.signs.tech.telephone_3;html=1;strokeColor=none;verticalLabelPosition=bottom;verticalAlign=top;align=center;fontColor=#CCCCCC;fillColor=#999999;" vertex="1" parent="u197wY4B6SGhlcCvIEL5-1">
          <mxGeometry x="915.75" y="248" width="23.5" height="30" as="geometry" />
        </mxCell>
        <mxCell id="Cww_4uUf4-sxZRk8ilHu-24" value="&lt;b&gt;&lt;font style=&quot;font-size: 20px&quot; color=&quot;#666666&quot;&gt;Powered by Information&lt;/font&gt;&lt;/b&gt;" style="text;html=1;strokeColor=none;fillColor=none;align=center;verticalAlign=middle;whiteSpace=wrap;rounded=0;fontFamily=Helvetica;fontSize=15;fontColor=#FFFFFF;" vertex="1" parent="u197wY4B6SGhlcCvIEL5-1">
          <mxGeometry x="539" y="1330" width="307.5" height="20" as="geometry" />
        </mxCell>
        <mxCell id="Cww_4uUf4-sxZRk8ilHu-25" value="" style="group" vertex="1" connectable="0" parent="u197wY4B6SGhlcCvIEL5-1">
          <mxGeometry x="84" y="154" width="815" height="660" as="geometry" />
        </mxCell>
        <mxCell id="Cww_4uUf4-sxZRk8ilHu-28" value="" style="rounded=0;whiteSpace=wrap;html=1;fillColor=#666666;strokeColor=none;" vertex="1" parent="Cww_4uUf4-sxZRk8ilHu-25">
          <mxGeometry width="205" height="45.96100278551532" as="geometry" />
        </mxCell>
        <mxCell id="Cww_4uUf4-sxZRk8ilHu-29" value="" style="rounded=0;whiteSpace=wrap;html=1;fillColor=#E6E6E6;strokeColor=none;" vertex="1" parent="Cww_4uUf4-sxZRk8ilHu-25">
          <mxGeometry y="59.44" width="205" height="360.56" as="geometry" />
        </mxCell>
        <mxCell id="Cww_4uUf4-sxZRk8ilHu-30" value="&lt;font style=&quot;font-size: 18px&quot; color=&quot;#ffffff&quot;&gt;&lt;b&gt;Acoount Settings&lt;/b&gt;&lt;/font&gt;" style="text;html=1;strokeColor=none;fillColor=none;align=center;verticalAlign=middle;whiteSpace=wrap;rounded=0;" vertex="1" parent="Cww_4uUf4-sxZRk8ilHu-25">
          <mxGeometry x="17.5" y="5.362116991643454" width="170" height="35.23676880222841" as="geometry" />
        </mxCell>
        <mxCell id="Cww_4uUf4-sxZRk8ilHu-31" value="&lt;font color=&quot;#666666&quot;&gt;&lt;span style=&quot;font-size: 18px&quot;&gt;&lt;b&gt;Edit Profile&amp;nbsp;&lt;/b&gt;&lt;/span&gt;&lt;/font&gt;" style="text;html=1;strokeColor=none;fillColor=none;align=center;verticalAlign=middle;whiteSpace=wrap;rounded=0;" vertex="1" parent="Cww_4uUf4-sxZRk8ilHu-25">
          <mxGeometry x="17.5" y="82.72980501392757" width="170" height="35.23676880222841" as="geometry" />
        </mxCell>
        <mxCell id="Cww_4uUf4-sxZRk8ilHu-32" value="&lt;font color=&quot;#666666&quot;&gt;&lt;span style=&quot;font-size: 18px&quot;&gt;&lt;b&gt;Change Password&lt;/b&gt;&lt;/span&gt;&lt;/font&gt;" style="text;html=1;strokeColor=none;fillColor=none;align=center;verticalAlign=middle;whiteSpace=wrap;rounded=0;" vertex="1" parent="Cww_4uUf4-sxZRk8ilHu-25">
          <mxGeometry x="17.5" y="125.99610027855154" width="170" height="35.23676880222841" as="geometry" />
        </mxCell>
        <mxCell id="Cww_4uUf4-sxZRk8ilHu-33" value="&lt;font color=&quot;#666666&quot;&gt;&lt;span style=&quot;font-size: 18px&quot;&gt;&lt;b&gt;&lt;i&gt;Emergency Contact&lt;/i&gt;&lt;/b&gt;&lt;/span&gt;&lt;/font&gt;" style="text;html=1;strokeColor=none;fillColor=none;align=center;verticalAlign=middle;whiteSpace=wrap;rounded=0;" vertex="1" parent="Cww_4uUf4-sxZRk8ilHu-25">
          <mxGeometry x="17.5" y="169.02286908077994" width="170" height="35.23676880222841" as="geometry" />
        </mxCell>
        <mxCell id="Cww_4uUf4-sxZRk8ilHu-34" value="&lt;font color=&quot;#666666&quot;&gt;&lt;span style=&quot;font-size: 18px&quot;&gt;&lt;b&gt;Medications&lt;/b&gt;&lt;/span&gt;&lt;/font&gt;" style="text;html=1;strokeColor=none;fillColor=none;align=center;verticalAlign=middle;whiteSpace=wrap;rounded=0;" vertex="1" parent="Cww_4uUf4-sxZRk8ilHu-25">
          <mxGeometry x="17.5" y="217.28963788300834" width="170" height="35.23676880222841" as="geometry" />
        </mxCell>
        <mxCell id="Cww_4uUf4-sxZRk8ilHu-35" value="&lt;font color=&quot;#666666&quot;&gt;&lt;span style=&quot;font-size: 18px&quot;&gt;&lt;b&gt;Doctors Appointments&lt;/b&gt;&lt;/span&gt;&lt;/font&gt;" style="text;html=1;strokeColor=none;fillColor=none;align=center;verticalAlign=middle;whiteSpace=wrap;rounded=0;" vertex="1" parent="Cww_4uUf4-sxZRk8ilHu-25">
          <mxGeometry x="17.5" y="265.99640668523676" width="170" height="35.23676880222841" as="geometry" />
        </mxCell>
        <mxCell id="Cww_4uUf4-sxZRk8ilHu-36" value="&lt;font color=&quot;#666666&quot;&gt;&lt;span style=&quot;font-size: 18px&quot;&gt;&lt;b&gt;Privacy and Security&lt;/b&gt;&lt;/span&gt;&lt;/font&gt;" style="text;html=1;strokeColor=none;fillColor=none;align=center;verticalAlign=middle;whiteSpace=wrap;rounded=0;" vertex="1" parent="Cww_4uUf4-sxZRk8ilHu-25">
          <mxGeometry x="17.5" y="326.00317548746517" width="170" height="35.23676880222841" as="geometry" />
        </mxCell>
        <mxCell id="Cww_4uUf4-sxZRk8ilHu-57" value="&lt;b&gt;&lt;font style=&quot;font-size: 20px&quot; color=&quot;#666666&quot;&gt;Privacy Policy | Terms &amp;amp; Conditions&lt;/font&gt;&lt;/b&gt;" style="text;html=1;strokeColor=none;fillColor=none;align=center;verticalAlign=middle;whiteSpace=wrap;rounded=0;fontFamily=Helvetica;fontSize=15;fontColor=#FFFFFF;" vertex="1" parent="u197wY4B6SGhlcCvIEL5-1">
          <mxGeometry y="1330" width="430" height="20" as="geometry" />
        </mxCell>
        <mxCell id="Cww_4uUf4-sxZRk8ilHu-58" value="" style="rounded=0;whiteSpace=wrap;html=1;fontFamily=Helvetica;fontSize=25;fontColor=#333333;strokeColor=none;fillColor=#EDEDED;" vertex="1" parent="u197wY4B6SGhlcCvIEL5-1">
          <mxGeometry x="304" y="154" width="555" height="1086" as="geometry" />
        </mxCell>
        <mxCell id="Cww_4uUf4-sxZRk8ilHu-59" value="&lt;font color=&quot;#808080&quot;&gt;Edit&lt;br&gt;&lt;b&gt;Profile&lt;/b&gt;&lt;br&gt;&lt;/font&gt;" style="text;html=1;strokeColor=none;fillColor=none;align=left;verticalAlign=middle;whiteSpace=wrap;rounded=0;fontFamily=Helvetica;fontSize=40;fontColor=#666666;" vertex="1" parent="u197wY4B6SGhlcCvIEL5-1">
          <mxGeometry x="334" y="180" width="220" height="94" as="geometry" />
        </mxCell>
        <mxCell id="Cww_4uUf4-sxZRk8ilHu-86" value="" style="rounded=1;whiteSpace=wrap;html=1;fillColor=#FFFFFF;" vertex="1" parent="u197wY4B6SGhlcCvIEL5-1">
          <mxGeometry x="537.25" y="270" width="260" height="40" as="geometry" />
        </mxCell>
        <mxCell id="Cww_4uUf4-sxZRk8ilHu-88" value="" style="shape=image;html=1;verticalAlign=top;verticalLabelPosition=bottom;labelBackgroundColor=#ffffff;imageAspect=0;aspect=fixed;image=https://cdn0.iconfinder.com/data/icons/small-n-flat/24/678099-profile-filled-128.png;opacity=20;" vertex="1" parent="u197wY4B6SGhlcCvIEL5-1">
          <mxGeometry x="344" y="270" width="128" height="128" as="geometry" />
        </mxCell>
        <mxCell id="Cww_4uUf4-sxZRk8ilHu-81" value="&lt;font style=&quot;font-size: 18px&quot;&gt;Edit Photo&lt;/font&gt;" style="labelPosition=center;verticalLabelPosition=middle;align=center;html=1;shape=mxgraph.basic.shaded_button;dx=2;fontColor=#ffffff;strokeColor=#CCCCCC;fillColor=#CCCCCC;" vertex="1" parent="u197wY4B6SGhlcCvIEL5-1">
          <mxGeometry x="319" y="410" width="175" height="40" as="geometry" />
        </mxCell>
        <mxCell id="Cww_4uUf4-sxZRk8ilHu-93" value="" style="rounded=1;whiteSpace=wrap;html=1;fillColor=#FFFFFF;" vertex="1" parent="u197wY4B6SGhlcCvIEL5-1">
          <mxGeometry x="539" y="330" width="260" height="40" as="geometry" />
        </mxCell>
        <mxCell id="Cww_4uUf4-sxZRk8ilHu-98" value="" style="group" vertex="1" connectable="0" parent="u197wY4B6SGhlcCvIEL5-1">
          <mxGeometry x="569" y="410" width="270" height="40" as="geometry" />
        </mxCell>
        <mxCell id="Cww_4uUf4-sxZRk8ilHu-85" value="" style="rounded=1;whiteSpace=wrap;html=1;fillColor=#FFFFFF;" vertex="1" parent="Cww_4uUf4-sxZRk8ilHu-98">
          <mxGeometry x="-27" y="-5" width="270" height="40" as="geometry" />
        </mxCell>
        <mxCell id="Cww_4uUf4-sxZRk8ilHu-84" value="&lt;font style=&quot;font-size: 24px&quot;&gt;Location&lt;/font&gt;" style="text;html=1;strokeColor=none;fillColor=none;align=center;verticalAlign=middle;whiteSpace=wrap;rounded=0;" vertex="1" parent="Cww_4uUf4-sxZRk8ilHu-98">
          <mxGeometry x="51.25" y="5" width="86" height="30" as="geometry" />
        </mxCell>
        <mxCell id="Cww_4uUf4-sxZRk8ilHu-63" value="" style="html=1;verticalLabelPosition=bottom;align=center;labelBackgroundColor=#ffffff;verticalAlign=top;strokeWidth=2;shadow=0;dashed=0;shape=mxgraph.ios7.icons.location;strokeColor=#CCCCCC;" vertex="1" parent="Cww_4uUf4-sxZRk8ilHu-98">
          <mxGeometry x="20" y="10" width="20" height="20" as="geometry" />
        </mxCell>
        <mxCell id="Cww_4uUf4-sxZRk8ilHu-64" value="&lt;font style=&quot;font-size: 24px&quot;&gt;CONTACT INFORMATION&lt;/font&gt;" style="text;html=1;strokeColor=none;align=center;verticalAlign=middle;whiteSpace=wrap;rounded=0;fontColor=#4D4D4D;" vertex="1" parent="u197wY4B6SGhlcCvIEL5-1">
          <mxGeometry x="319" y="550" width="306" height="20" as="geometry" />
        </mxCell>
        <mxCell id="Cww_4uUf4-sxZRk8ilHu-66" value="555-666-9999" style="rounded=1;whiteSpace=wrap;html=1;fillColor=#FFFFFF;" vertex="1" parent="u197wY4B6SGhlcCvIEL5-1">
          <mxGeometry x="537.25" y="610" width="270" height="40" as="geometry" />
        </mxCell>
        <mxCell id="Cww_4uUf4-sxZRk8ilHu-69" value="" style="rounded=1;whiteSpace=wrap;html=1;fillColor=#FFFFFF;" vertex="1" parent="u197wY4B6SGhlcCvIEL5-1">
          <mxGeometry x="539" y="670" width="270" height="70" as="geometry" />
        </mxCell>
        <mxCell id="Cww_4uUf4-sxZRk8ilHu-70" value="" style="rounded=1;whiteSpace=wrap;html=1;fillColor=#FFFFFF;" vertex="1" parent="u197wY4B6SGhlcCvIEL5-1">
          <mxGeometry x="542" y="760" width="270" height="40" as="geometry" />
        </mxCell>
        <mxCell id="Cww_4uUf4-sxZRk8ilHu-71" value="&lt;span style=&quot;font-size: 24px&quot;&gt;BASIC INFORMATION&lt;/span&gt;" style="text;html=1;strokeColor=none;align=center;verticalAlign=middle;whiteSpace=wrap;rounded=0;fontColor=#4D4D4D;" vertex="1" parent="u197wY4B6SGhlcCvIEL5-1">
          <mxGeometry x="319" y="850" width="261" height="20" as="geometry" />
        </mxCell>
        <mxCell id="Cww_4uUf4-sxZRk8ilHu-75" value="" style="rounded=1;whiteSpace=wrap;html=1;fillColor=#FFFFFF;" vertex="1" parent="u197wY4B6SGhlcCvIEL5-1">
          <mxGeometry x="539" y="900" width="280" height="40" as="geometry" />
        </mxCell>
        <mxCell id="Cww_4uUf4-sxZRk8ilHu-82" value="" style="rounded=1;arcSize=9;fillColor=#F7F8F9;align=left;spacingLeft=5;html=1;strokeWidth=2;fontColor=#596780;fontSize=12" vertex="1" parent="u197wY4B6SGhlcCvIEL5-1">
          <mxGeometry x="539" y="970" width="280" height="33" as="geometry" />
        </mxCell>
        <mxCell id="Cww_4uUf4-sxZRk8ilHu-83" value="" style="shape=mxgraph.gmdl.calendar;fillColor=#5A6881;strokeColor=none" vertex="1" parent="Cww_4uUf4-sxZRk8ilHu-82">
          <mxGeometry x="1" y="0.5" width="18" height="18" relative="1" as="geometry">
            <mxPoint x="-29" y="-9" as="offset" />
          </mxGeometry>
        </mxCell>
        <mxCell id="Cww_4uUf4-sxZRk8ilHu-74" value="&lt;span style=&quot;font-size: 14px&quot;&gt;&lt;b&gt;Birthday:&lt;/b&gt;&lt;/span&gt;" style="text;html=1;strokeColor=none;fillColor=none;align=center;verticalAlign=middle;whiteSpace=wrap;rounded=0;" vertex="1" parent="Cww_4uUf4-sxZRk8ilHu-82">
          <mxGeometry x="21" y="6.5" width="60" height="20" as="geometry" />
        </mxCell>
        <mxCell id="Cww_4uUf4-sxZRk8ilHu-77" value="" style="rounded=1;whiteSpace=wrap;html=1;fillColor=#FFFFFF;" vertex="1" parent="u197wY4B6SGhlcCvIEL5-1">
          <mxGeometry x="539" y="1030" width="280" height="40" as="geometry" />
        </mxCell>
        <mxCell id="Cww_4uUf4-sxZRk8ilHu-80" value="CANCEL" style="labelPosition=center;verticalLabelPosition=middle;align=center;html=1;shape=mxgraph.basic.shaded_button;dx=2;strokeColor=#006EAF;fontColor=#ffffff;fillColor=#CCCCCC;" vertex="1" parent="u197wY4B6SGhlcCvIEL5-1">
          <mxGeometry x="559" y="1100" width="100" height="40" as="geometry" />
        </mxCell>
        <mxCell id="Cww_4uUf4-sxZRk8ilHu-79" value="SAVE&lt;span style=&quot;font-family: monospace; font-size: 0px;&quot;&gt;%3CmxGraphModel%3E%3Croot%3E%3CmxCell%20id%3D%220%22%2F%3E%3CmxCell%20id%3D%221%22%20parent%3D%220%22%2F%3E%3CmxCell%20id%3D%222%22%20value%3D%22%22%20style%3D%22shape%3Ddelay%3BwhiteSpace%3Dwrap%3Bhtml%3D1%3BfillColor%3D%23FFFFFF%3BfontColor%3D%234D4D4D%3B%22%20vertex%3D%221%22%20parent%3D%221%22%3E%3CmxGeometry%20x%3D%2290%22%20y%3D%221070%22%20width%3D%22100%22%20height%3D%2230%22%20as%3D%22geometry%22%2F%3E%3C%2FmxCell%3E%3C%2Froot%3E%3C%2FmxGraphModel%3E&lt;/span&gt;&lt;span style=&quot;font-family: monospace; font-size: 0px;&quot;&gt;%3CmxGraphModel%3E%3Croot%3E%3CmxCell%20id%3D%220%22%2F%3E%3CmxCell%20id%3D%221%22%20parent%3D%220%22%2F%3E%3CmxCell%20id%3D%222%22%20value%3D%22%22%20style%3D%22shape%3Ddelay%3BwhiteSpace%3Dwrap%3Bhtml%3D1%3BfillColor%3D%23FFFFFF%3BfontColor%3D%234D4D4D%3B%22%20vertex%3D%221%22%20parent%3D%221%22%3E%3CmxGeometry%20x%3D%2290%22%20y%3D%221070%22%20width%3D%22100%22%20height%3D%2230%22%20as%3D%22geometry%22%2F%3E%3C%2FmxCell%3E%3C%2Froot%3E%3C%2FmxGraphModel%3E&lt;/span&gt;" style="labelPosition=center;verticalLabelPosition=middle;align=center;html=1;shape=mxgraph.basic.shaded_button;dx=2;strokeColor=#006EAF;fontColor=#ffffff;fillColor=#CCCCCC;" vertex="1" parent="u197wY4B6SGhlcCvIEL5-1">
          <mxGeometry x="729" y="1100" width="100" height="40" as="geometry" />
        </mxCell>
        <mxCell id="Cww_4uUf4-sxZRk8ilHu-68" value="&lt;font style=&quot;font-size: 14px&quot;&gt;&lt;b&gt;Email:&lt;/b&gt;&lt;/font&gt;" style="text;html=1;strokeColor=none;fillColor=none;align=center;verticalAlign=middle;whiteSpace=wrap;rounded=0;" vertex="1" parent="u197wY4B6SGhlcCvIEL5-1">
          <mxGeometry x="647.25" y="770" width="50" height="20" as="geometry" />
        </mxCell>
        <mxCell id="Cww_4uUf4-sxZRk8ilHu-67" value="&lt;span style=&quot;font-size: 14px&quot;&gt;&lt;b&gt;Address:&lt;/b&gt;&lt;/span&gt;" style="text;html=1;strokeColor=none;fillColor=none;align=center;verticalAlign=middle;whiteSpace=wrap;rounded=0;" vertex="1" parent="u197wY4B6SGhlcCvIEL5-1">
          <mxGeometry x="642.25" y="687" width="60" height="20" as="geometry" />
        </mxCell>
        <mxCell id="Cww_4uUf4-sxZRk8ilHu-72" value="&lt;span style=&quot;font-size: 14px&quot;&gt;&lt;b&gt;Gender:&lt;/b&gt;&lt;/span&gt;" style="text;html=1;strokeColor=none;fillColor=none;align=center;verticalAlign=middle;whiteSpace=wrap;rounded=0;" vertex="1" parent="u197wY4B6SGhlcCvIEL5-1">
          <mxGeometry x="549" y="910" width="60" height="20" as="geometry" />
        </mxCell>
        <mxCell id="Cww_4uUf4-sxZRk8ilHu-73" value="&lt;span style=&quot;font-size: 14px&quot;&gt;&lt;b&gt;Hobbies:&lt;/b&gt;&lt;/span&gt;" style="text;html=1;strokeColor=none;fillColor=none;align=center;verticalAlign=middle;whiteSpace=wrap;rounded=0;" vertex="1" parent="u197wY4B6SGhlcCvIEL5-1">
          <mxGeometry x="550" y="1040" width="60" height="20" as="geometry" />
        </mxCell>
        <mxCell id="Cww_4uUf4-sxZRk8ilHu-76" style="edgeStyle=orthogonalEdgeStyle;rounded=0;orthogonalLoop=1;jettySize=auto;html=1;exitX=0.5;exitY=1;exitDx=0;exitDy=0;fontColor=#4D4D4D;" edge="1" parent="u197wY4B6SGhlcCvIEL5-1" source="Cww_4uUf4-sxZRk8ilHu-73" target="Cww_4uUf4-sxZRk8ilHu-73">
          <mxGeometry relative="1" as="geometry" />
        </mxCell>
        <mxCell id="Cww_4uUf4-sxZRk8ilHu-87" value="&lt;font style=&quot;font-size: 24px&quot;&gt;Last Name&lt;/font&gt;" style="text;html=1;strokeColor=none;fillColor=none;align=center;verticalAlign=middle;whiteSpace=wrap;rounded=0;" vertex="1" parent="u197wY4B6SGhlcCvIEL5-1">
          <mxGeometry x="589" y="340" width="126" height="30" as="geometry" />
        </mxCell>
        <mxCell id="Cww_4uUf4-sxZRk8ilHu-100" value="&lt;font style=&quot;font-size: 24px&quot;&gt;First Name&lt;/font&gt;" style="text;html=1;strokeColor=none;fillColor=none;align=center;verticalAlign=middle;whiteSpace=wrap;rounded=0;" vertex="1" parent="u197wY4B6SGhlcCvIEL5-1">
          <mxGeometry x="586" y="278" width="126" height="30" as="geometry" />
        </mxCell>
      </root>
    </mxGraphModel>
  </diagram>
  <diagram id="ovaR8N8WrJw3hFMRFfUv" name="Profile-page">
    <mxGraphModel dx="1149" dy="646" grid="1" gridSize="10" guides="1" tooltips="1" connect="1" arrows="1" fold="1" page="1" pageScale="1" pageWidth="850" pageHeight="1100" math="0" shadow="0">
      <root>
        <mxCell id="Gfk7INZrDM2vCeWvqn-7-0" />
        <mxCell id="Gfk7INZrDM2vCeWvqn-7-1" parent="Gfk7INZrDM2vCeWvqn-7-0" />
        <mxCell id="Bib_KN6prGBboa5JUG_P-171" value="" style="group" vertex="1" connectable="0" parent="Gfk7INZrDM2vCeWvqn-7-1">
          <mxGeometry x="380" y="358" width="1030" height="1490" as="geometry" />
        </mxCell>
        <mxCell id="Bib_KN6prGBboa5JUG_P-172" value="" style="group;strokeColor=#000000;" vertex="1" connectable="0" parent="Bib_KN6prGBboa5JUG_P-171">
          <mxGeometry x="-1.1704545454545454" width="1030.0000000000002" height="1490" as="geometry" />
        </mxCell>
        <mxCell id="Bib_KN6prGBboa5JUG_P-173" value="" style="group" vertex="1" connectable="0" parent="Bib_KN6prGBboa5JUG_P-172">
          <mxGeometry y="4" width="1030.0000000000002" height="1490" as="geometry" />
        </mxCell>
        <mxCell id="Bib_KN6prGBboa5JUG_P-174" value="" style="group" vertex="1" connectable="0" parent="Bib_KN6prGBboa5JUG_P-173">
          <mxGeometry x="-10.534090909090912" width="1030.0000000000002" height="1490" as="geometry" />
        </mxCell>
        <mxCell id="Bib_KN6prGBboa5JUG_P-175" value="" style="group;fillColor=#666666;" vertex="1" connectable="0" parent="Bib_KN6prGBboa5JUG_P-174">
          <mxGeometry width="1030.0000000000002" height="1490" as="geometry" />
        </mxCell>
        <mxCell id="Bib_KN6prGBboa5JUG_P-176" value="" style="rounded=0;whiteSpace=wrap;html=1;fontFamily=Times New Roman;" vertex="1" parent="Bib_KN6prGBboa5JUG_P-175">
          <mxGeometry width="1030.0000000000002" height="500" as="geometry" />
        </mxCell>
        <mxCell id="Bib_KN6prGBboa5JUG_P-177" value="" style="rounded=0;whiteSpace=wrap;html=1;strokeColor=none;" vertex="1" parent="Bib_KN6prGBboa5JUG_P-175">
          <mxGeometry x="3.803977272727273" y="1438" width="1022.0994318181819" height="50" as="geometry" />
        </mxCell>
        <mxCell id="Bib_KN6prGBboa5JUG_P-178" value="" style="rounded=0;whiteSpace=wrap;html=1;fontFamily=Helvetica;fontSize=25;fontColor=#333333;fillColor=#f5f5f5;strokeColor=none;" vertex="1" parent="Bib_KN6prGBboa5JUG_P-175">
          <mxGeometry x="1.7556818181818186" y="470" width="1025.318181818182" height="981" as="geometry" />
        </mxCell>
        <mxCell id="Bib_KN6prGBboa5JUG_P-179" value="" style="rhombus;whiteSpace=wrap;html=1;fontFamily=Helvetica;fontSize=12;fontColor=#000000;align=center;strokeColor=#000000;fillColor=#ffffff;" vertex="1" parent="Bib_KN6prGBboa5JUG_P-175">
          <mxGeometry x="35.11363636363637" y="15" width="46.81818181818183" height="40" as="geometry" />
        </mxCell>
        <mxCell id="Bib_KN6prGBboa5JUG_P-180" value="" style="rounded=0;whiteSpace=wrap;html=1;fontColor=#CCCCCC;strokeColor=#CCCCCC;" vertex="1" parent="Bib_KN6prGBboa5JUG_P-175">
          <mxGeometry x="974.9886363636364" y="536" width="55.01136363636365" height="40" as="geometry" />
        </mxCell>
        <mxCell id="Bib_KN6prGBboa5JUG_P-181" value="" style="shape=mxgraph.signs.tech.telephone_3;html=1;strokeColor=none;verticalLabelPosition=bottom;verticalAlign=top;align=center;fontColor=#CCCCCC;fillColor=#999999;" vertex="1" parent="Bib_KN6prGBboa5JUG_P-175">
          <mxGeometry x="988.7414772727275" y="541" width="27.505681818181824" height="30" as="geometry" />
        </mxCell>
        <mxCell id="Bib_KN6prGBboa5JUG_P-182" value="&lt;font style=&quot;font-size: 20px&quot; color=&quot;#666666&quot;&gt;Powered by Information&lt;/font&gt;" style="text;html=1;strokeColor=none;fillColor=none;align=center;verticalAlign=middle;whiteSpace=wrap;rounded=0;fontFamily=Helvetica;fontSize=15;fontColor=#FFFFFF;" vertex="1" parent="Bib_KN6prGBboa5JUG_P-175">
          <mxGeometry x="646.6761363636364" y="1460" width="359.91477272727275" height="20" as="geometry" />
        </mxCell>
        <mxCell id="Bib_KN6prGBboa5JUG_P-183" value="" style="group;fontStyle=1" vertex="1" connectable="0" parent="Bib_KN6prGBboa5JUG_P-175">
          <mxGeometry x="393.2727272727273" y="25" width="491.5909090909092" height="20" as="geometry" />
        </mxCell>
        <mxCell id="Bib_KN6prGBboa5JUG_P-184" value="" style="group" vertex="1" connectable="0" parent="Bib_KN6prGBboa5JUG_P-175">
          <mxGeometry x="291.15056818181824" y="386" width="447.69886363636374" height="60" as="geometry" />
        </mxCell>
        <mxCell id="Bib_KN6prGBboa5JUG_P-185" value="" style="group" vertex="1" connectable="0" parent="Bib_KN6prGBboa5JUG_P-184">
          <mxGeometry width="447.69886363636374" height="60" as="geometry" />
        </mxCell>
        <mxCell id="Bib_KN6prGBboa5JUG_P-186" value="" style="rounded=0;whiteSpace=wrap;html=1;align=left;fontColor=#E6E6E6;strokeColor=#B3B3B3;" vertex="1" parent="Bib_KN6prGBboa5JUG_P-185">
          <mxGeometry x="8.19318181818182" y="8" width="447.69886363636374" height="36" as="geometry" />
        </mxCell>
        <mxCell id="Bib_KN6prGBboa5JUG_P-187" value="" style="rounded=0;whiteSpace=wrap;html=1;align=left;fontColor=#E6E6E6;strokeColor=#B3B3B3;" vertex="1" parent="Bib_KN6prGBboa5JUG_P-185">
          <mxGeometry x="8.19318181818182" y="44" width="447.69886363636374" height="24" as="geometry" />
        </mxCell>
        <mxCell id="Bib_KN6prGBboa5JUG_P-188" value="" style="html=1;verticalLabelPosition=bottom;align=center;labelBackgroundColor=#ffffff;verticalAlign=top;strokeWidth=2;shadow=0;dashed=0;shape=mxgraph.ios7.icons.video_conversation;fontColor=#E6E6E6;strokeColor=#B3B3B3;" vertex="1" parent="Bib_KN6prGBboa5JUG_P-185">
          <mxGeometry x="21.36079545454546" y="51" width="21.946022727272734" height="10" as="geometry" />
        </mxCell>
        <mxCell id="Bib_KN6prGBboa5JUG_P-189" value="" style="html=1;verticalLabelPosition=bottom;align=center;labelBackgroundColor=#ffffff;verticalAlign=top;strokeWidth=2;shadow=0;dashed=0;shape=mxgraph.ios7.icons.camera;strokeColor=#B3B3B3;fontColor=#666666;" vertex="1" parent="Bib_KN6prGBboa5JUG_P-185">
          <mxGeometry x="161.81534090909093" y="49.03" width="23.409090909090914" height="13.95" as="geometry" />
        </mxCell>
        <mxCell id="Bib_KN6prGBboa5JUG_P-190" value="&lt;b&gt;Video&lt;/b&gt;" style="text;html=1;strokeColor=none;fillColor=none;align=center;verticalAlign=middle;whiteSpace=wrap;rounded=0;fontColor=#666666;" vertex="1" parent="Bib_KN6prGBboa5JUG_P-185">
          <mxGeometry x="56.474431818181834" y="46" width="46.81818181818183" height="20" as="geometry" />
        </mxCell>
        <mxCell id="Bib_KN6prGBboa5JUG_P-191" value="&lt;b&gt;Photo&lt;/b&gt;" style="text;html=1;strokeColor=none;fillColor=none;align=center;verticalAlign=middle;whiteSpace=wrap;rounded=0;fontColor=#666666;" vertex="1" parent="Bib_KN6prGBboa5JUG_P-185">
          <mxGeometry x="196.92897727272734" y="46" width="46.81818181818183" height="20" as="geometry" />
        </mxCell>
        <mxCell id="Bib_KN6prGBboa5JUG_P-192" value="&lt;b&gt;Share your thoughts&lt;/b&gt;" style="text;html=1;strokeColor=none;fillColor=none;align=left;verticalAlign=middle;whiteSpace=wrap;rounded=0;fontColor=#666666;" vertex="1" parent="Bib_KN6prGBboa5JUG_P-185">
          <mxGeometry x="33.065340909090914" y="16" width="232.627840909091" height="20" as="geometry" />
        </mxCell>
        <mxCell id="Bib_KN6prGBboa5JUG_P-194" value="" style="group" vertex="1" connectable="0" parent="Bib_KN6prGBboa5JUG_P-175">
          <mxGeometry x="515.0000000000001" y="25" width="491.5909090909092" height="20" as="geometry" />
        </mxCell>
        <mxCell id="Bib_KN6prGBboa5JUG_P-195" value="&lt;b&gt;Home&lt;/b&gt;" style="text;html=1;strokeColor=none;fillColor=none;align=center;verticalAlign=middle;whiteSpace=wrap;rounded=0;fontColor=#666666;" vertex="1" parent="Bib_KN6prGBboa5JUG_P-194">
          <mxGeometry width="46.81818181818183" height="20" as="geometry" />
        </mxCell>
        <mxCell id="Bib_KN6prGBboa5JUG_P-196" value="&lt;b&gt;About Us&lt;/b&gt;" style="text;html=1;strokeColor=none;fillColor=none;align=center;verticalAlign=middle;whiteSpace=wrap;rounded=0;fontColor=#666666;" vertex="1" parent="Bib_KN6prGBboa5JUG_P-194">
          <mxGeometry x="58.52272727272727" width="70.22727272727273" height="20" as="geometry" />
        </mxCell>
        <mxCell id="Bib_KN6prGBboa5JUG_P-197" value="&lt;b&gt;Agency Information&lt;/b&gt;" style="text;html=1;strokeColor=none;fillColor=none;align=center;verticalAlign=middle;whiteSpace=wrap;rounded=0;fontColor=#666666;" vertex="1" parent="Bib_KN6prGBboa5JUG_P-194">
          <mxGeometry x="222.38636363636368" width="140.45454545454547" height="20" as="geometry" />
        </mxCell>
        <mxCell id="Bib_KN6prGBboa5JUG_P-198" value="&lt;b&gt;My Account&lt;/b&gt;" style="text;html=1;strokeColor=none;fillColor=none;align=center;verticalAlign=middle;whiteSpace=wrap;rounded=0;fontColor=#666666;" vertex="1" parent="Bib_KN6prGBboa5JUG_P-194">
          <mxGeometry x="362.8409090909092" width="128.75000000000003" height="20" as="geometry" />
        </mxCell>
        <mxCell id="Bib_KN6prGBboa5JUG_P-199" value="&lt;font color=&quot;#666666&quot;&gt;Fun Stuff&lt;/font&gt;" style="text;html=1;strokeColor=none;fillColor=none;align=center;verticalAlign=middle;whiteSpace=wrap;rounded=0;fontStyle=1" vertex="1" parent="Bib_KN6prGBboa5JUG_P-194">
          <mxGeometry x="140.45454545454547" width="70.22727272727273" height="20" as="geometry" />
        </mxCell>
        <mxCell id="Bib_KN6prGBboa5JUG_P-200" style="edgeStyle=orthogonalEdgeStyle;rounded=0;orthogonalLoop=1;jettySize=auto;html=1;exitX=0.5;exitY=1;exitDx=0;exitDy=0;" edge="1" parent="Bib_KN6prGBboa5JUG_P-194" source="Bib_KN6prGBboa5JUG_P-199" target="Bib_KN6prGBboa5JUG_P-199">
          <mxGeometry relative="1" as="geometry" />
        </mxCell>
        <mxCell id="Bib_KN6prGBboa5JUG_P-201" value="" style="rounded=0;whiteSpace=wrap;html=1;strokeColor=#B3B3B3;fontColor=#B3B3B3;align=left;fillColor=#666666;" vertex="1" parent="Bib_KN6prGBboa5JUG_P-175">
          <mxGeometry x="76.07954545454547" y="436" width="187.2727272727273" height="40" as="geometry" />
        </mxCell>
        <mxCell id="Bib_KN6prGBboa5JUG_P-202" value="" style="rounded=0;whiteSpace=wrap;html=1;strokeColor=#B3B3B3;fontColor=#B3B3B3;align=left;fillColor=#666666;" vertex="1" parent="Bib_KN6prGBboa5JUG_P-175">
          <mxGeometry x="783.0340909090911" y="436" width="187.2727272727273" height="40" as="geometry" />
        </mxCell>
        <mxCell id="Bib_KN6prGBboa5JUG_P-203" value="" style="rounded=0;whiteSpace=wrap;html=1;strokeColor=#B3B3B3;fontColor=#B3B3B3;align=left;" vertex="1" parent="Bib_KN6prGBboa5JUG_P-175">
          <mxGeometry x="73.73863636363639" y="531" width="187.2727272727273" height="540" as="geometry" />
        </mxCell>
        <mxCell id="Bib_KN6prGBboa5JUG_P-204" value="" style="rounded=0;whiteSpace=wrap;html=1;strokeColor=#B3B3B3;fontColor=#B3B3B3;align=left;" vertex="1" parent="Bib_KN6prGBboa5JUG_P-175">
          <mxGeometry x="780.6931818181818" y="531" width="187.2727272727273" height="370" as="geometry" />
        </mxCell>
        <mxCell id="Bib_KN6prGBboa5JUG_P-205" value="" style="group" vertex="1" connectable="0" parent="Bib_KN6prGBboa5JUG_P-175">
          <mxGeometry x="292.61363636363643" y="541" width="456.47727272727275" height="270" as="geometry" />
        </mxCell>
        <mxCell id="Bib_KN6prGBboa5JUG_P-206" value="" style="group" vertex="1" connectable="0" parent="Bib_KN6prGBboa5JUG_P-205">
          <mxGeometry width="456.47727272727275" height="264.4897959183674" as="geometry" />
        </mxCell>
        <mxCell id="Bib_KN6prGBboa5JUG_P-207" value="" style="rounded=0;whiteSpace=wrap;html=1;strokeColor=#B3B3B3;fontColor=#666666;align=left;fillColor=#FFFFFF;" vertex="1" parent="Bib_KN6prGBboa5JUG_P-206">
          <mxGeometry width="456.47727272727275" height="230" as="geometry" />
        </mxCell>
        <mxCell id="Bib_KN6prGBboa5JUG_P-208" value="" style="rounded=0;whiteSpace=wrap;html=1;strokeColor=#B3B3B3;fillColor=#FFFFFF;fontColor=#666666;align=left;" vertex="1" parent="Bib_KN6prGBboa5JUG_P-206">
          <mxGeometry width="456.47727272727275" height="34.49866903283053" as="geometry" />
        </mxCell>
        <mxCell id="Bib_KN6prGBboa5JUG_P-209" value="" style="ellipse;whiteSpace=wrap;html=1;aspect=fixed;strokeColor=#B3B3B3;fillColor=#FFFFFF;fontColor=#666666;align=left;" vertex="1" parent="Bib_KN6prGBboa5JUG_P-206">
          <mxGeometry x="9.948863636363638" y="4.749911268855369" width="24.71590909090909" height="24.71590909090909" as="geometry" />
        </mxCell>
        <mxCell id="Bib_KN6prGBboa5JUG_P-210" value="&lt;font style=&quot;font-size: 18px&quot;&gt;Posuere ac ut consequat semper viverra nam libero justo. Mauris pharetra et ultrices neque ornare aenean euismod elementum nisi. Aenean sed adipiscing diam donec adipiscing. Integer feugiat scelerisque varius morbi enim nunc faucibus. Congue nisi vitae suscipit tellus mauris.&lt;/font&gt;" style="text;html=1;strokeColor=none;fillColor=none;align=left;verticalAlign=middle;whiteSpace=wrap;rounded=0;fontColor=#666666;" vertex="1" parent="Bib_KN6prGBboa5JUG_P-206">
          <mxGeometry x="9.948863636363638" y="35.65" width="436.57954545454555" height="154.35" as="geometry" />
        </mxCell>
        <mxCell id="Bib_KN6prGBboa5JUG_P-211" value="&lt;b&gt;&lt;font style=&quot;font-size: 18px&quot;&gt;John Doe&lt;/font&gt;&lt;/b&gt;" style="text;html=1;strokeColor=none;fillColor=none;align=left;verticalAlign=middle;whiteSpace=wrap;rounded=0;fontColor=#666666;" vertex="1" parent="Bib_KN6prGBboa5JUG_P-206">
          <mxGeometry x="51.5" y="1.1499556344276842" width="108.85227272727273" height="34.49866903283053" as="geometry" />
        </mxCell>
        <mxCell id="Bib_KN6prGBboa5JUG_P-213" value="" style="shape=callout;whiteSpace=wrap;html=1;perimeter=calloutPerimeter;strokeColor=#B3B3B3;fillColor=#FFFFFF;fontColor=#666666;align=left;size=13;position=0.46;base=10;position2=0.36;" vertex="1" parent="Bib_KN6prGBboa5JUG_P-206">
          <mxGeometry x="25.45738636363637" y="196.36" width="37.45454545454545" height="28.99" as="geometry" />
        </mxCell>
        <mxCell id="Bib_KN6prGBboa5JUG_P-214" value="" style="verticalLabelPosition=bottom;verticalAlign=top;html=1;shape=mxgraph.basic.heart;strokeColor=#B3B3B3;fillColor=#FFFFFF;fontColor=#666666;align=left;" vertex="1" parent="Bib_KN6prGBboa5JUG_P-206">
          <mxGeometry x="400.00284090909093" y="196.36" width="31.01704545454546" height="24.99" as="geometry" />
        </mxCell>
        <mxCell id="Bib_KN6prGBboa5JUG_P-215" value="1m ago" style="text;html=1;strokeColor=none;fillColor=none;align=center;verticalAlign=middle;whiteSpace=wrap;rounded=0;fontColor=#666666;" vertex="1" parent="Bib_KN6prGBboa5JUG_P-206">
          <mxGeometry x="368.1079545454546" y="7.25" width="78.42045454545455" height="20" as="geometry" />
        </mxCell>
        <mxCell id="Bib_KN6prGBboa5JUG_P-216" value="&lt;span style=&quot;font-size: 18px&quot;&gt;&lt;font color=&quot;#cccccc&quot;&gt;Write a comment ...&lt;/font&gt;&lt;/span&gt;" style="text;html=1;strokeColor=none;fillColor=none;align=left;verticalAlign=middle;whiteSpace=wrap;rounded=0;fontColor=#666666;" vertex="1" parent="Bib_KN6prGBboa5JUG_P-206">
          <mxGeometry x="81.93375" y="187" width="292.61363636363643" height="31.35" as="geometry" />
        </mxCell>
        <mxCell id="Bib_KN6prGBboa5JUG_P-217" value="&lt;b&gt;&lt;font style=&quot;font-size: 14px&quot;&gt;Trending&lt;/font&gt;&lt;/b&gt;" style="text;html=1;strokeColor=none;fillColor=none;align=center;verticalAlign=middle;whiteSpace=wrap;rounded=0;fontColor=#666666;" vertex="1" parent="Bib_KN6prGBboa5JUG_P-175">
          <mxGeometry x="115.28977272727273" y="556" width="93.63636363636365" height="20" as="geometry" />
        </mxCell>
        <mxCell id="Bib_KN6prGBboa5JUG_P-218" value="&lt;b&gt;&lt;font style=&quot;font-size: 18px&quot; color=&quot;#ffffff&quot;&gt;Activities&lt;/font&gt;&lt;/b&gt;" style="text;html=1;strokeColor=none;fillColor=none;align=left;verticalAlign=middle;whiteSpace=wrap;rounded=0;fontColor=#666666;" vertex="1" parent="Bib_KN6prGBboa5JUG_P-175">
          <mxGeometry x="115.28977272727273" y="438.7499556344277" width="108.85227272727273" height="34.49866903283053" as="geometry" />
        </mxCell>
        <mxCell id="Bib_KN6prGBboa5JUG_P-219" value="&lt;b&gt;&lt;font style=&quot;font-size: 18px&quot; color=&quot;#ffffff&quot;&gt;Suggestions&lt;/font&gt;&lt;/b&gt;" style="text;html=1;strokeColor=none;fillColor=none;align=left;verticalAlign=middle;whiteSpace=wrap;rounded=0;fontColor=#666666;" vertex="1" parent="Bib_KN6prGBboa5JUG_P-175">
          <mxGeometry x="814.6363636363639" y="438.75" width="133.43181818181822" height="34.5" as="geometry" />
        </mxCell>
        <mxCell id="Bib_KN6prGBboa5JUG_P-220" value="&lt;b&gt;&lt;font style=&quot;font-size: 14px&quot;&gt;Recent&lt;/font&gt;&lt;/b&gt;" style="text;html=1;strokeColor=none;fillColor=none;align=center;verticalAlign=middle;whiteSpace=wrap;rounded=0;fontColor=#666666;" vertex="1" parent="Bib_KN6prGBboa5JUG_P-175">
          <mxGeometry x="138.69886363636363" y="701" width="46.81818181818183" height="20" as="geometry" />
        </mxCell>
        <mxCell id="Bib_KN6prGBboa5JUG_P-221" value="&lt;b&gt;&lt;font style=&quot;font-size: 14px&quot;&gt;Advert&lt;/font&gt;&lt;/b&gt;" style="text;html=1;strokeColor=none;fillColor=none;align=center;verticalAlign=middle;whiteSpace=wrap;rounded=0;fontColor=#666666;" vertex="1" parent="Bib_KN6prGBboa5JUG_P-175">
          <mxGeometry x="132.84659090909093" y="871" width="58.52272727272727" height="20" as="geometry" />
        </mxCell>
        <mxCell id="Bib_KN6prGBboa5JUG_P-222" value="" style="rounded=0;whiteSpace=wrap;html=1;strokeColor=#B3B3B3;fontColor=#666666;align=left;fillColor=#FFFFFF;" vertex="1" parent="Bib_KN6prGBboa5JUG_P-175">
          <mxGeometry x="291.15056818181824" y="831" width="456.47727272727275" height="450" as="geometry" />
        </mxCell>
        <mxCell id="Bib_KN6prGBboa5JUG_P-223" value="" style="rounded=0;whiteSpace=wrap;html=1;strokeColor=#B3B3B3;fillColor=#FFFFFF;fontColor=#666666;align=left;" vertex="1" parent="Bib_KN6prGBboa5JUG_P-175">
          <mxGeometry x="291.15056818181824" y="831" width="456.47727272727275" height="30" as="geometry" />
        </mxCell>
        <mxCell id="Bib_KN6prGBboa5JUG_P-224" value="" style="ellipse;whiteSpace=wrap;html=1;aspect=fixed;strokeColor=#B3B3B3;fillColor=#FFFFFF;fontColor=#666666;align=left;" vertex="1" parent="Bib_KN6prGBboa5JUG_P-175">
          <mxGeometry x="301.09943181818187" y="833.5793847289318" width="24.71590909090909" height="24.71590909090909" as="geometry" />
        </mxCell>
        <mxCell id="Bib_KN6prGBboa5JUG_P-225" value="&lt;font style=&quot;font-size: 18px&quot;&gt;Posuere ac ut consequat semper viverra nam libero justo. Mauris pharetra et ultrices neque ornare aenean euismod elementum nisi. Aenean sed adipiscing diam donec adipiscing. Integer feugiat scelerisque varius morbi enim nunc faucibus. Congue nisi vitae suscipit tellus mauris.&lt;/font&gt;" style="text;html=1;strokeColor=none;fillColor=none;align=left;verticalAlign=middle;whiteSpace=wrap;rounded=0;fontColor=#666666;" vertex="1" parent="Bib_KN6prGBboa5JUG_P-175">
          <mxGeometry x="301.09943181818187" y="861.0036170212766" width="436.57954545454555" height="166.64893617021278" as="geometry" />
        </mxCell>
        <mxCell id="Bib_KN6prGBboa5JUG_P-226" value="&lt;b&gt;&lt;font style=&quot;font-size: 18px&quot;&gt;John Doe&lt;/font&gt;&lt;/b&gt;" style="text;html=1;strokeColor=none;fillColor=none;align=left;verticalAlign=middle;whiteSpace=wrap;rounded=0;fontColor=#666666;" vertex="1" parent="Bib_KN6prGBboa5JUG_P-175">
          <mxGeometry x="342.6505681818182" y="832.16" width="108.85227272727273" height="27.83" as="geometry" />
        </mxCell>
        <mxCell id="Bib_KN6prGBboa5JUG_P-227" style="edgeStyle=orthogonalEdgeStyle;rounded=0;orthogonalLoop=1;jettySize=auto;html=1;exitX=0.5;exitY=1;exitDx=0;exitDy=0;fontColor=#666666;" edge="1" parent="Bib_KN6prGBboa5JUG_P-175" source="Bib_KN6prGBboa5JUG_P-225" target="Bib_KN6prGBboa5JUG_P-225">
          <mxGeometry relative="1" as="geometry" />
        </mxCell>
        <mxCell id="Bib_KN6prGBboa5JUG_P-228" value="" style="shape=callout;whiteSpace=wrap;html=1;perimeter=calloutPerimeter;strokeColor=#B3B3B3;fillColor=#FFFFFF;fontColor=#666666;align=left;size=13;position=0.46;base=10;position2=0.36;" vertex="1" parent="Bib_KN6prGBboa5JUG_P-175">
          <mxGeometry x="316.60795454545456" y="1241" width="37.45454545454545" height="30.7" as="geometry" />
        </mxCell>
        <mxCell id="Bib_KN6prGBboa5JUG_P-229" value="" style="verticalLabelPosition=bottom;verticalAlign=top;html=1;shape=mxgraph.basic.heart;strokeColor=#B3B3B3;fillColor=#FFFFFF;fontColor=#666666;align=left;" vertex="1" parent="Bib_KN6prGBboa5JUG_P-175">
          <mxGeometry x="691.1534090909091" y="1241" width="31.01704545454546" height="23.14" as="geometry" />
        </mxCell>
        <mxCell id="Bib_KN6prGBboa5JUG_P-230" value="1m ago" style="text;html=1;strokeColor=none;fillColor=none;align=center;verticalAlign=middle;whiteSpace=wrap;rounded=0;fontColor=#666666;" vertex="1" parent="Bib_KN6prGBboa5JUG_P-175">
          <mxGeometry x="669.2073863636364" y="837.37" width="78.42045454545455" height="17.42" as="geometry" />
        </mxCell>
        <mxCell id="Bib_KN6prGBboa5JUG_P-231" value="&lt;span style=&quot;font-size: 18px&quot;&gt;&lt;font color=&quot;#cccccc&quot;&gt;Write a comment ...&lt;/font&gt;&lt;/span&gt;" style="text;html=1;strokeColor=none;fillColor=none;align=left;verticalAlign=middle;whiteSpace=wrap;rounded=0;fontColor=#666666;" vertex="1" parent="Bib_KN6prGBboa5JUG_P-175">
          <mxGeometry x="384.4943181818182" y="1241" width="292.61363636363643" height="23.14" as="geometry" />
        </mxCell>
        <mxCell id="Bib_KN6prGBboa5JUG_P-232" value="" style="group" vertex="1" connectable="0" parent="Bib_KN6prGBboa5JUG_P-175">
          <mxGeometry x="305.48863636363643" y="1027.65" width="426.3380681818182" height="195.96000000000004" as="geometry" />
        </mxCell>
        <mxCell id="Bib_KN6prGBboa5JUG_P-233" value="" style="verticalLabelPosition=bottom;verticalAlign=top;html=1;shape=mxgraph.basic.patternFillRect;fillStyle=diagRev;step=5;fillStrokeWidth=0.2;fillStrokeColor=#dddddd;strokeColor=#B3B3B3;fillColor=#FFFFFF;fontColor=#666666;align=left;" vertex="1" parent="Bib_KN6prGBboa5JUG_P-232">
          <mxGeometry width="210.3892045454546" height="95.96" as="geometry" />
        </mxCell>
        <mxCell id="Bib_KN6prGBboa5JUG_P-234" value="" style="verticalLabelPosition=bottom;verticalAlign=top;html=1;shape=mxgraph.basic.patternFillRect;fillStyle=diagRev;step=5;fillStrokeWidth=0.2;fillStrokeColor=#dddddd;strokeColor=#B3B3B3;fillColor=#FFFFFF;fontColor=#666666;align=left;" vertex="1" parent="Bib_KN6prGBboa5JUG_P-232">
          <mxGeometry x="215.94886363636365" width="210.3892045454546" height="195.96" as="geometry" />
        </mxCell>
        <mxCell id="Bib_KN6prGBboa5JUG_P-235" value="" style="verticalLabelPosition=bottom;verticalAlign=top;html=1;shape=mxgraph.basic.patternFillRect;fillStyle=diagRev;step=5;fillStrokeWidth=0.2;fillStrokeColor=#dddddd;strokeColor=#B3B3B3;fillColor=#FFFFFF;fontColor=#666666;align=left;" vertex="1" parent="Bib_KN6prGBboa5JUG_P-232">
          <mxGeometry x="0.29261363636363635" y="100" width="210.3892045454546" height="95.96" as="geometry" />
        </mxCell>
        <mxCell id="Bib_KN6prGBboa5JUG_P-236" value="&lt;span style=&quot;font-size: 14px&quot;&gt;&lt;b&gt;Recommended&lt;/b&gt;&lt;/span&gt;" style="text;html=1;strokeColor=none;fillColor=none;align=center;verticalAlign=middle;whiteSpace=wrap;rounded=0;fontColor=#666666;" vertex="1" parent="Bib_KN6prGBboa5JUG_P-175">
          <mxGeometry x="802.3465909090911" y="551" width="143.96590909090912" height="20" as="geometry" />
        </mxCell>
        <mxCell id="Bib_KN6prGBboa5JUG_P-237" value="&lt;b&gt;&lt;font style=&quot;font-size: 14px&quot;&gt;Advert&lt;/font&gt;&lt;/b&gt;" style="text;html=1;strokeColor=none;fillColor=none;align=center;verticalAlign=middle;whiteSpace=wrap;rounded=0;fontColor=#666666;" vertex="1" parent="Bib_KN6prGBboa5JUG_P-175">
          <mxGeometry x="847.4090909090911" y="701" width="58.52272727272727" height="20" as="geometry" />
        </mxCell>
        <mxCell id="Bib_KN6prGBboa5JUG_P-238" value="" style="rounded=0;whiteSpace=wrap;html=1;strokeColor=#666666;fillColor=#B3B3B3;fontColor=#666666;align=left;" vertex="1" parent="Bib_KN6prGBboa5JUG_P-175">
          <mxGeometry x="792.3977272727275" y="734.79" width="163.86363636363637" height="136.21" as="geometry" />
        </mxCell>
        <mxCell id="Bib_KN6prGBboa5JUG_P-239" value="" style="rounded=0;whiteSpace=wrap;html=1;strokeColor=#666666;fillColor=#B3B3B3;fontColor=#666666;align=left;" vertex="1" parent="Bib_KN6prGBboa5JUG_P-175">
          <mxGeometry x="85.44318181818183" y="901" width="163.86363636363637" height="136.21" as="geometry" />
        </mxCell>
        <mxCell id="Bib_KN6prGBboa5JUG_P-240" value="" style="group" vertex="1" connectable="0" parent="Bib_KN6prGBboa5JUG_P-175">
          <mxGeometry x="105.04829545454548" y="581" width="124.65340909090911" height="100" as="geometry" />
        </mxCell>
        <mxCell id="Bib_KN6prGBboa5JUG_P-241" value="&lt;font style=&quot;font-size: 14px&quot;&gt;#CoronaVirus&lt;/font&gt;" style="text;html=1;strokeColor=none;fillColor=none;align=center;verticalAlign=middle;whiteSpace=wrap;rounded=0;fontColor=#666666;" vertex="1" parent="Bib_KN6prGBboa5JUG_P-240">
          <mxGeometry width="124.65340909090911" height="20" as="geometry" />
        </mxCell>
        <mxCell id="Bib_KN6prGBboa5JUG_P-242" value="&lt;font style=&quot;font-size: 14px&quot;&gt;#CoronaVirus&lt;/font&gt;" style="text;html=1;strokeColor=none;fillColor=none;align=center;verticalAlign=middle;whiteSpace=wrap;rounded=0;fontColor=#666666;" vertex="1" parent="Bib_KN6prGBboa5JUG_P-240">
          <mxGeometry y="20" width="124.65340909090911" height="20" as="geometry" />
        </mxCell>
        <mxCell id="Bib_KN6prGBboa5JUG_P-243" value="&lt;font style=&quot;font-size: 14px&quot;&gt;#CoronaVirus&lt;/font&gt;" style="text;html=1;strokeColor=none;fillColor=none;align=center;verticalAlign=middle;whiteSpace=wrap;rounded=0;fontColor=#666666;" vertex="1" parent="Bib_KN6prGBboa5JUG_P-240">
          <mxGeometry y="40" width="124.65340909090911" height="20" as="geometry" />
        </mxCell>
        <mxCell id="Bib_KN6prGBboa5JUG_P-244" value="&lt;font style=&quot;font-size: 14px&quot;&gt;#CoronaVirus&lt;/font&gt;" style="text;html=1;strokeColor=none;fillColor=none;align=center;verticalAlign=middle;whiteSpace=wrap;rounded=0;fontColor=#666666;" vertex="1" parent="Bib_KN6prGBboa5JUG_P-240">
          <mxGeometry y="60" width="124.65340909090911" height="20" as="geometry" />
        </mxCell>
        <mxCell id="Bib_KN6prGBboa5JUG_P-245" value="&lt;font style=&quot;font-size: 14px&quot;&gt;#CoronaVirus&lt;/font&gt;" style="text;html=1;strokeColor=none;fillColor=none;align=center;verticalAlign=middle;whiteSpace=wrap;rounded=0;fontColor=#666666;" vertex="1" parent="Bib_KN6prGBboa5JUG_P-240">
          <mxGeometry y="80" width="124.65340909090911" height="20" as="geometry" />
        </mxCell>
        <mxCell id="Bib_KN6prGBboa5JUG_P-246" value="" style="group" vertex="1" connectable="0" parent="Bib_KN6prGBboa5JUG_P-175">
          <mxGeometry x="99.78125" y="752.89" width="124.65340909090911" height="100" as="geometry" />
        </mxCell>
        <mxCell id="Bib_KN6prGBboa5JUG_P-247" value="" style="group" vertex="1" connectable="0" parent="Bib_KN6prGBboa5JUG_P-246">
          <mxGeometry width="124.65340909090911" height="100" as="geometry" />
        </mxCell>
        <mxCell id="Bib_KN6prGBboa5JUG_P-248" value="&lt;font style=&quot;font-size: 14px&quot;&gt;#CoronaVirus&lt;/font&gt;" style="text;html=1;strokeColor=none;fillColor=none;align=center;verticalAlign=middle;whiteSpace=wrap;rounded=0;fontColor=#666666;" vertex="1" parent="Bib_KN6prGBboa5JUG_P-247">
          <mxGeometry width="124.65340909090911" height="20" as="geometry" />
        </mxCell>
        <mxCell id="Bib_KN6prGBboa5JUG_P-249" value="&lt;font style=&quot;font-size: 14px&quot;&gt;#CoronaVirus&lt;/font&gt;" style="text;html=1;strokeColor=none;fillColor=none;align=center;verticalAlign=middle;whiteSpace=wrap;rounded=0;fontColor=#666666;" vertex="1" parent="Bib_KN6prGBboa5JUG_P-247">
          <mxGeometry y="20" width="124.65340909090911" height="20" as="geometry" />
        </mxCell>
        <mxCell id="Bib_KN6prGBboa5JUG_P-250" value="&lt;font style=&quot;font-size: 14px&quot;&gt;#CoronaVirus&lt;/font&gt;" style="text;html=1;strokeColor=none;fillColor=none;align=center;verticalAlign=middle;whiteSpace=wrap;rounded=0;fontColor=#666666;" vertex="1" parent="Bib_KN6prGBboa5JUG_P-247">
          <mxGeometry y="40" width="124.65340909090911" height="20" as="geometry" />
        </mxCell>
        <mxCell id="Bib_KN6prGBboa5JUG_P-251" value="&lt;font style=&quot;font-size: 14px&quot;&gt;#CoronaVirus&lt;/font&gt;" style="text;html=1;strokeColor=none;fillColor=none;align=center;verticalAlign=middle;whiteSpace=wrap;rounded=0;fontColor=#666666;" vertex="1" parent="Bib_KN6prGBboa5JUG_P-247">
          <mxGeometry y="60" width="124.65340909090911" height="20" as="geometry" />
        </mxCell>
        <mxCell id="Bib_KN6prGBboa5JUG_P-252" value="&lt;font style=&quot;font-size: 14px&quot;&gt;#CoronaVirus&lt;/font&gt;" style="text;html=1;strokeColor=none;fillColor=none;align=center;verticalAlign=middle;whiteSpace=wrap;rounded=0;fontColor=#666666;" vertex="1" parent="Bib_KN6prGBboa5JUG_P-247">
          <mxGeometry y="80" width="124.65340909090911" height="20" as="geometry" />
        </mxCell>
        <mxCell id="Bib_KN6prGBboa5JUG_P-253" value="" style="group" vertex="1" connectable="0" parent="Bib_KN6prGBboa5JUG_P-175">
          <mxGeometry x="99.78125" y="734.79" width="124.65340909090911" height="20" as="geometry" />
        </mxCell>
        <mxCell id="Bib_KN6prGBboa5JUG_P-254" value="&lt;font style=&quot;font-size: 14px&quot;&gt;#CoronaVirus&lt;/font&gt;" style="text;html=1;strokeColor=none;fillColor=none;align=center;verticalAlign=middle;whiteSpace=wrap;rounded=0;fontColor=#666666;" vertex="1" parent="Bib_KN6prGBboa5JUG_P-253">
          <mxGeometry width="124.65340909090911" height="20" as="geometry" />
        </mxCell>
        <mxCell id="Bib_KN6prGBboa5JUG_P-255" value="" style="group" vertex="1" connectable="0" parent="Bib_KN6prGBboa5JUG_P-175">
          <mxGeometry x="812.0028409090911" y="576" width="124.36079545454548" height="40" as="geometry" />
        </mxCell>
        <mxCell id="Bib_KN6prGBboa5JUG_P-256" value="&lt;font color=&quot;#ffffff&quot; style=&quot;background-color: rgb(179 , 179 , 179)&quot;&gt;Follow&lt;/font&gt;" style="rounded=0;whiteSpace=wrap;html=1;labelBackgroundColor=#ffffff;strokeColor=#666666;fillColor=#B3B3B3;fontColor=#666666;align=center;" vertex="1" parent="Bib_KN6prGBboa5JUG_P-255">
          <mxGeometry x="23.701704545454547" y="20" width="81.93181818181819" height="20" as="geometry" />
        </mxCell>
        <mxCell id="Bib_KN6prGBboa5JUG_P-257" value="&lt;font style=&quot;font-size: 14px&quot;&gt;#CoronaVirus&lt;/font&gt;" style="text;html=1;strokeColor=none;fillColor=none;align=center;verticalAlign=middle;whiteSpace=wrap;rounded=0;fontColor=#666666;" vertex="1" parent="Bib_KN6prGBboa5JUG_P-255">
          <mxGeometry width="124.36079545454548" height="20" as="geometry" />
        </mxCell>
        <mxCell id="Bib_KN6prGBboa5JUG_P-258" value="&lt;font color=&quot;#ffffff&quot; style=&quot;background-color: rgb(179 , 179 , 179)&quot;&gt;Follow&lt;/font&gt;" style="rounded=0;whiteSpace=wrap;html=1;labelBackgroundColor=#ffffff;strokeColor=#666666;fillColor=#B3B3B3;fontColor=#666666;align=center;" vertex="1" parent="Bib_KN6prGBboa5JUG_P-175">
          <mxGeometry x="835.7045454545455" y="636" width="81.93181818181819" height="20" as="geometry" />
        </mxCell>
        <mxCell id="Bib_KN6prGBboa5JUG_P-259" value="" style="group" vertex="1" connectable="0" parent="Bib_KN6prGBboa5JUG_P-175">
          <mxGeometry x="812.0028409090911" y="616" width="124.36079545454548" height="40" as="geometry" />
        </mxCell>
        <mxCell id="Bib_KN6prGBboa5JUG_P-260" value="&lt;font style=&quot;font-size: 14px&quot;&gt;#CoronaVirus&lt;/font&gt;" style="text;html=1;strokeColor=none;fillColor=none;align=center;verticalAlign=middle;whiteSpace=wrap;rounded=0;fontColor=#666666;" vertex="1" parent="Bib_KN6prGBboa5JUG_P-259">
          <mxGeometry width="124.36079545454548" height="20" as="geometry" />
        </mxCell>
        <mxCell id="Bib_KN6prGBboa5JUG_P-261" value="&lt;font color=&quot;#ffffff&quot; style=&quot;background-color: rgb(179 , 179 , 179)&quot;&gt;Follow&lt;/font&gt;" style="rounded=0;whiteSpace=wrap;html=1;labelBackgroundColor=#ffffff;strokeColor=#666666;fillColor=#B3B3B3;fontColor=#666666;align=center;" vertex="1" parent="Bib_KN6prGBboa5JUG_P-175">
          <mxGeometry x="835.7045454545455" y="676" width="81.93181818181819" height="20" as="geometry" />
        </mxCell>
        <mxCell id="Bib_KN6prGBboa5JUG_P-262" value="" style="group" vertex="1" connectable="0" parent="Bib_KN6prGBboa5JUG_P-175">
          <mxGeometry x="812.0028409090911" y="656" width="124.36079545454548" height="40" as="geometry" />
        </mxCell>
        <mxCell id="Bib_KN6prGBboa5JUG_P-263" value="&lt;font style=&quot;font-size: 14px&quot;&gt;#CoronaVirus&lt;/font&gt;" style="text;html=1;strokeColor=none;fillColor=none;align=center;verticalAlign=middle;whiteSpace=wrap;rounded=0;fontColor=#666666;" vertex="1" parent="Bib_KN6prGBboa5JUG_P-262">
          <mxGeometry width="124.36079545454548" height="20" as="geometry" />
        </mxCell>
        <mxCell id="Bib_KN6prGBboa5JUG_P-367" value="Posts" style="text;html=1;strokeColor=none;fillColor=none;align=center;verticalAlign=middle;whiteSpace=wrap;rounded=0;fontSize=25;opacity=20;fontStyle=4;fontColor=#808080;" vertex="1" parent="Bib_KN6prGBboa5JUG_P-175">
          <mxGeometry x="296.125" y="498" width="66.71590909090911" height="20" as="geometry" />
        </mxCell>
        <mxCell id="Bib_KN6prGBboa5JUG_P-368" value="Notifications" style="text;html=1;strokeColor=none;fillColor=none;align=center;verticalAlign=middle;whiteSpace=wrap;rounded=0;fontSize=25;fontColor=#000000;opacity=20;" vertex="1" parent="Bib_KN6prGBboa5JUG_P-175">
          <mxGeometry x="487.4943181818182" y="500" width="156.25568181818187" height="20" as="geometry" />
        </mxCell>
        <mxCell id="Bib_KN6prGBboa5JUG_P-370" value="" style="rounded=0;whiteSpace=wrap;html=1;strokeColor=#000000;fillColor=#808080;fontSize=25;fontColor=#808080;opacity=20;" vertex="1" parent="Bib_KN6prGBboa5JUG_P-175">
          <mxGeometry x="3.803977272727273" y="88" width="1026.1960227272727" height="162" as="geometry" />
        </mxCell>
        <mxCell id="Bib_KN6prGBboa5JUG_P-380" value="" style="rounded=1;whiteSpace=wrap;html=1;labelBackgroundColor=#ffffff;fontSize=25;glass=1;shadow=0;sketch=0;" vertex="1" parent="Bib_KN6prGBboa5JUG_P-175">
          <mxGeometry x="35.11363636363637" y="208" width="152.15909090909093" height="110" as="geometry" />
        </mxCell>
        <mxCell id="Bib_KN6prGBboa5JUG_P-381" value="" style="shape=image;html=1;verticalAlign=top;verticalLabelPosition=bottom;labelBackgroundColor=#ffffff;imageAspect=0;aspect=fixed;image=https://cdn0.iconfinder.com/data/icons/small-n-flat/24/678099-profile-filled-128.png;rounded=1;shadow=0;glass=1;sketch=0;strokeColor=#000000;fillColor=#FFFFFF;fontSize=25;fontColor=#FFFFFF;opacity=20;" vertex="1" parent="Bib_KN6prGBboa5JUG_P-175">
          <mxGeometry x="50.32954545454547" y="216.25" width="92.4375" height="92.4375" as="geometry" />
        </mxCell>
        <mxCell id="Bib_KN6prGBboa5JUG_P-382" value="&lt;font style=&quot;font-size: 24px&quot;&gt;JOHN DOE&lt;/font&gt;" style="text;html=1;strokeColor=none;fillColor=none;align=center;verticalAlign=middle;whiteSpace=wrap;rounded=0;" vertex="1" parent="Bib_KN6prGBboa5JUG_P-175">
          <mxGeometry x="208.92613636363637" y="270" width="177.90909090909093" height="30" as="geometry" />
        </mxCell>
        <mxCell id="Bib_KN6prGBboa5JUG_P-385" value="&lt;font style=&quot;font-size: 24px&quot;&gt;New Mexico&lt;/font&gt;" style="text;html=1;strokeColor=none;fillColor=none;align=center;verticalAlign=middle;whiteSpace=wrap;rounded=0;" vertex="1" parent="Bib_KN6prGBboa5JUG_P-175">
          <mxGeometry x="513.2443181818182" y="270" width="177.90909090909093" height="30" as="geometry" />
        </mxCell>
        <mxCell id="Bib_KN6prGBboa5JUG_P-386" value="" style="html=1;verticalLabelPosition=bottom;align=center;labelBackgroundColor=#ffffff;verticalAlign=top;strokeWidth=2;strokeColor=#0080F0;shadow=0;dashed=0;shape=mxgraph.ios7.icons.location;rounded=1;glass=1;sketch=0;fillColor=#FFFFFF;fontSize=25;fontColor=#FFFFFF;opacity=20;" vertex="1" parent="Bib_KN6prGBboa5JUG_P-175">
          <mxGeometry x="505.34375" y="275" width="18.142045454545457" height="20" as="geometry" />
        </mxCell>
        <mxCell id="Bib_KN6prGBboa5JUG_P-387" value="&lt;h1 style=&quot;font-size: 18px&quot;&gt;&lt;span style=&quot;font-size: 18px ; font-weight: normal&quot;&gt;Lorem ipsum dolor sit amet, consectetur adipisicing elit, sed do eiusmod tempor incididunt ut labore et dolore magna aliqua. A&lt;/span&gt;&lt;span style=&quot;font-weight: normal&quot;&gt;dipisicing elit, sed do eiusmod tempor incididunt ut labore et dolore magna aliqua.&lt;/span&gt;&lt;br style=&quot;font-size: 18px&quot;&gt;&lt;/h1&gt;" style="text;html=1;strokeColor=none;fillColor=none;spacing=5;spacingTop=-20;whiteSpace=wrap;overflow=hidden;rounded=0;shadow=0;glass=1;labelBackgroundColor=#ffffff;sketch=0;fontSize=18;opacity=20;" vertex="1" parent="Bib_KN6prGBboa5JUG_P-175">
          <mxGeometry x="224.14204545454547" y="318" width="770.7443181818184" height="46" as="geometry" />
        </mxCell>
        <mxCell id="Bib_KN6prGBboa5JUG_P-388" value="" style="outlineConnect=0;fontColor=#232F3E;gradientColor=none;fillColor=#D05C17;strokeColor=none;dashed=0;verticalLabelPosition=bottom;verticalAlign=top;align=center;html=1;fontSize=12;fontStyle=0;aspect=fixed;pointerEvents=1;shape=mxgraph.aws4.container_registry_image;rounded=1;shadow=0;glass=1;labelBackgroundColor=#ffffff;sketch=0;opacity=20;" vertex="1" parent="Bib_KN6prGBboa5JUG_P-175">
          <mxGeometry x="451.50284090909093" y="95.5" width="152.7443181818182" height="152.7443181818182" as="geometry" />
        </mxCell>
        <mxCell id="Bib_KN6prGBboa5JUG_P-492" value="&lt;font style=&quot;font-size: 24px&quot;&gt;Profile&lt;/font&gt;" style="text;html=1;strokeColor=none;fillColor=none;align=center;verticalAlign=middle;whiteSpace=wrap;rounded=0;" vertex="1" parent="Bib_KN6prGBboa5JUG_P-175">
          <mxGeometry x="22.238636363636367" y="58" width="177.90909090909093" height="30" as="geometry" />
        </mxCell>
        <mxCell id="mRuMIdOCM-JCXrhd9QZt-104" value="&lt;font style=&quot;font-size: 24px&quot;&gt;Bio:&lt;/font&gt;" style="text;html=1;strokeColor=none;fillColor=none;align=center;verticalAlign=middle;whiteSpace=wrap;rounded=0;" vertex="1" parent="Bib_KN6prGBboa5JUG_P-175">
          <mxGeometry x="81.93181818181819" y="330" width="70.22727272727273" height="26" as="geometry" />
        </mxCell>
        <mxCell id="mRuMIdOCM-JCXrhd9QZt-106" value="&lt;font style=&quot;font-size: 17px;&quot;&gt;Friends: 25&lt;/font&gt;" style="text;html=1;strokeColor=none;fillColor=none;align=center;verticalAlign=middle;whiteSpace=wrap;rounded=0;fontSize=17;" vertex="1" parent="Bib_KN6prGBboa5JUG_P-175">
          <mxGeometry x="795.38" y="250" width="157.6" height="30" as="geometry" />
        </mxCell>
        <mxCell id="mRuMIdOCM-JCXrhd9QZt-107" value="&lt;font style=&quot;font-size: 17px;&quot;&gt;Following: 50&lt;/font&gt;" style="text;html=1;strokeColor=none;fillColor=none;align=center;verticalAlign=middle;whiteSpace=wrap;rounded=0;fontSize=17;" vertex="1" parent="Bib_KN6prGBboa5JUG_P-175">
          <mxGeometry x="795.3800000000001" y="275" width="157.6" height="30" as="geometry" />
        </mxCell>
        <mxCell id="Bib_KN6prGBboa5JUG_P-265" value="" style="line;strokeWidth=2;html=1;fillColor=none;fontSize=25;fontColor=#000000;opacity=20;" vertex="1" parent="Gfk7INZrDM2vCeWvqn-7-1">
          <mxGeometry x="420" y="730" width="860" height="10" as="geometry" />
        </mxCell>
      </root>
    </mxGraphModel>
  </diagram>
  <diagram id="T76JKKloXLyDFJlKJ7vP" name="Page-3">
    <mxGraphModel dx="2760" dy="1507" grid="1" gridSize="10" guides="1" tooltips="1" connect="1" arrows="1" fold="1" page="1" pageScale="1" pageWidth="850" pageHeight="1100" math="0" shadow="0">
      <root>
        <mxCell id="G2wi6NBp8yozt0_IFRHe-0" />
        <mxCell id="G2wi6NBp8yozt0_IFRHe-1" parent="G2wi6NBp8yozt0_IFRHe-0" />
      </root>
    </mxGraphModel>
  </diagram>
</mxfile>
